<svg width="94" height="94" viewBox="0 0 94 94" fill="none" xmlns="http://www.w3.org/2000/svg">
<path d="M74.5 64.5C74.5 65.8261 73.9732 67.0979 73.0355 68.0355C72.0979 68.9732 70.8261 69.5 69.5 69.5H24.5C23.1739 69.5 21.9021 68.9732 20.9645 68.0355C20.0268 67.0979 19.5 65.8261 19.5 64.5V37C19.5 35.6739 20.0268 34.4021 20.9645 33.4645C21.9021 32.5268 23.1739 32 24.5 32H34.5L39.5 24.5H54.5L59.5 32H69.5C70.8261 32 72.0979 32.5268 73.0355 33.4645C73.9732 34.4021 74.5 35.6739 74.5 37V64.5Z" stroke="#101828" stroke-width="3.5" stroke-linecap="round" stroke-linejoin="round"/>
<path d="M47 59.5C52.5228 59.5 57 55.0228 57 49.5C57 43.9772 52.5228 39.5 47 39.5C41.4772 39.5 37 43.9772 37 49.5C37 55.0228 41.4772 59.5 47 59.5Z" stroke="#101828" stroke-width="3.5" stroke-linecap="round" stroke-linejoin="round"/>
<circle cx="47" cy="47" r="44.75" stroke="black" stroke-width="3.5"/>
</svg>
