<svg width="75" height="75" viewBox="0 0 75 75" fill="none" xmlns="http://www.w3.org/2000/svg">
<path d="M9.79167 73.125H65.2083C69.5806 73.125 73.125 69.5806 73.125 65.2083V9.79167C73.125 5.41941 69.5806 1.875 65.2083 1.875H9.79167C5.41941 1.875 1.875 5.41941 1.875 9.79167V65.2083C1.875 69.5806 5.41941 73.125 9.79167 73.125ZM9.79167 73.125L53.3333 29.5833L73.125 49.375M29.5833 23.6458C29.5833 26.925 26.925 29.5833 23.6458 29.5833C20.3666 29.5833 17.7083 26.925 17.7083 23.6458C17.7083 20.3666 20.3666 17.7083 23.6458 17.7083C26.925 17.7083 29.5833 20.3666 29.5833 23.6458Z" stroke="#191919" stroke-width="3.5" stroke-linecap="round" stroke-linejoin="round"/>
</svg>
